<?xml version="1.0" encoding="UTF-8"?>
<svg width="1024" height="1024" viewBox="0 0 1024 1024" xmlns="http://www.w3.org/2000/svg">
  <defs>
    <linearGradient id="bgGrad" x1="0" y1="0" x2="1" y2="1">
      <stop offset="0%" stop-color="#7e57c2"/>
      <stop offset="100%" stop-color="#26a69a"/>
    </linearGradient>

    <filter id="shadow" x="-20%" y="-20%" width="140%" height="140%">
      <feDropShadow dx="0" dy="8" stdDeviation="12" flood-color="#000000" flood-opacity="0.25"/>
    </filter>

    <filter id="innerGlow" x="-20%" y="-20%" width="140%" height="140%">
      <feGaussianBlur in="SourceGraphic" stdDeviation="6" result="blur"/>
      <feComposite in="SourceGraphic" in2="blur" operator="arithmetic" k1="0" k2="1" k3="0" k4="0"/>
    </filter>

    <clipPath id="squircle">
      <rect x="0" y="0" width="1024" height="1024" rx="220" ry="220"/>
    </clipPath>

    <linearGradient id="tileGrad1" x1="0" y1="0" x2="1" y2="1">
      <stop offset="0%" stop-color="#e8eaf6"/>
      <stop offset="100%" stop-color="#e0f2f1"/>
    </linearGradient>
    <linearGradient id="tileGrad2" x1="1" y1="0" x2="0" y2="1">
      <stop offset="0%" stop-color="#e0f2f1"/>
      <stop offset="100%" stop-color="#e8eaf6"/>
    </linearGradient>
  </defs>

  <!-- Background squircle -->
  <rect x="0" y="0" width="1024" height="1024" rx="220" ry="220" fill="url(#bgGrad)"/>

  <!-- Subtle inner highlight -->
  <g clip-path="url(#squircle)">
    <ellipse cx="358.4" cy="307.2" rx="614.4" ry="460.8"
             fill="white" opacity="0.12"/>
  </g>

  <!-- Collage tiles group -->
  <g transform="translate(140, 160)">
    <!-- Back tile (angled) -->
    <g filter="url(#shadow)" transform="rotate(-6 260 260)">
      <rect x="40" y="40" width="420" height="420" rx="48" ry="48"
            fill="url(#tileGrad1)" stroke="white" stroke-width="24"/>
    </g>

    <!-- Middle tile (straight grid of mini-tiles) -->
    <g filter="url(#shadow)" transform="translate(220, 110)">
      <rect x="0" y="0" width="460" height="460" rx="48" ry="48"
            fill="white" stroke="white" stroke-width="24"/>
      <!-- simulate collage grid by drawing 4 colored areas -->
      <g transform="translate(36,36)">
        <rect x="0" y="0" width="176.0" height="176.0" rx="24" ry="24" fill="url(#tileGrad2)"/>
        <rect x="212.0" y="0" width="176.0" height="176.0" rx="24" ry="24" fill="url(#tileGrad1)"/>
        <rect x="0" y="212.0" width="176.0" height="176.0" rx="24" ry="24" fill="url(#tileGrad1)"/>
        <rect x="212.0" y="212.0" width="176.0" height="176.0" rx="24" ry="24" fill="url(#tileGrad2)"/>
      </g>
    </g>

    <!-- Front tile (portrait card, opposite angle) -->
    <g filter="url(#shadow)" transform="rotate(7 540 540) translate(420, 260)">
      <rect x="0" y="0" width="260" height="360" rx="48" ry="48"
            fill="url(#tileGrad2)" stroke="white" stroke-width="24"/>
      <!-- small camera cutout to suggest photography -->
      <circle cx="198" cy="52" r="10" fill="white" opacity="0.6"/>
    </g>
  </g>

  <!-- Gentle border for definition -->
  <rect x="6" y="6" width="1012" height="1012" rx="214" ry="214"
        fill="none" stroke="white" opacity="0.25" stroke-width="12"/>
</svg>
